<?xml version="1.0" encoding="utf-8"?>
<svg version="1.1" id="Layer_1" xmlns="http://www.w3.org/2000/svg" xmlns:xlink="http://www.w3.org/1999/xlink" x="0px" y="0px"
	 viewBox="0 0 64 64" style="enable-background:new 0 0 64 64;" xml:space="preserve">
<style type="text/css">
	.st0{fill:none;stroke:#EBEBEB;stroke-width:2;stroke-linecap:round;stroke-linejoin:round;stroke-miterlimit:10;}
	.st1{fill:none;stroke:#EBEBEB;stroke-linecap:round;stroke-linejoin:round;stroke-miterlimit:10;}
</style>
<g>
	<path class="st0" d="M10,41.3v12c0,1.1,0.9,2,2,2h40c1.1,0,2-0.9,2-2v-12H10z"/>
	<path class="st0" d="M42.6,19.4c3.8,7.3,7.6,14.7,11.4,22c-14.7,0-29.3,0-44,0c3.8-7.3,7.6-14.7,11.4-22"/>
	<g>
		<line class="st0" x1="32" y1="8.7" x2="32" y2="28.2"/>
		<line class="st0" x1="32" y1="8.7" x2="35.7" y2="12.4"/>
		<line class="st0" x1="28" y1="12.4" x2="31.7" y2="8.7"/>
	</g>
	<circle class="st1" cx="47.3" cy="46.7" r="2.3"/>
	<line class="st0" x1="21.4" y1="19.4" x2="27.5" y2="19.4"/>
	<line class="st0" x1="36.4" y1="19.4" x2="42.5" y2="19.4"/>
	<line class="st0" x1="21.9" y1="36.4" x2="41.9" y2="36.4"/>
	<line class="st0" x1="23.5" y1="32.1" x2="40.2" y2="32.1"/>
</g>
</svg>
